<svg xmlns="http://www.w3.org/2000/svg" width="256" height="256"><path fill-opacity=".016" d="M0 128.004v128.004l128.25-.254 128.25-.254.254-127.75L257.008 0H0v128.004m.485.496c0 70.4.119 99.053.265 63.672.146-35.38.146-92.98 0-128C.604 29.153.485 58.1.485 128.5" fill="#1976D2" fill-rule="evenodd"/><path fill-opacity=".159" d="M137.943 24.65c-1.663 4.373-2.292 10.35-1.09 10.35.61 0 1.386-1.105 1.725-2.456.526-2.094 1.043-2.37 3.519-1.875 3.57.714 3.939-1.192.403-2.08-1.375-.345-2.5-1.314-2.5-2.153 0-1.203.742-1.387 3.5-.87 4.933.925 4.456-1.08-.559-2.353-3.828-.972-4.114-.889-4.998 1.437m-14.693.012c-2.196.886-1.342 4.221 1.5 5.858l2.75 1.584-2.75-.571c-1.999-.415-2.75-.175-2.75.881 0 3.17 6.247 2.991 7.477-.215.668-1.74-1.807-4.199-4.227-4.199-.752 0-1.076-.472-.72-1.049.442-.714 1.105-.669 2.083.143 1.912 1.587 3.01.362 1.407-1.57-1.284-1.547-2.518-1.77-4.77-.862m-10.675 2.256c-3.525 3.894.345 9.892 5.175 8.019 3.001-1.164 3.22-7.347.316-8.902-2.696-1.442-3.505-1.312-5.491.883m-6.805 1.46c-1.619 1.229-1.625 1.581-.098 5.468.897 2.285 2.013 4.154 2.48 4.154 1.125 0 1.07-1.287-.198-4.62-.84-2.211-.738-2.921.522-3.626.861-.482 1.305-1.299.986-1.815-.768-1.244-1.609-1.144-3.692.439m8.345-.017c-1.546 1.863-.354 4.639 1.992 4.639 2.237 0 2.58-3.185.526-4.89-1.035-.858-1.648-.797-2.518.251m33.325 4.09c-2.068 3.157-1.061 6.355 2.264 7.19 1.99.499 2.988.104 4.412-1.748 2.268-2.95 2.334-4.3.313-6.322-2.287-2.286-5.15-1.926-6.989.88m-51.002.617c-1.711 1.891-1.742 2.3-.366 4.75 1.769 3.153 6.556 3.719 8.284.98 1.46-2.315-.195-3.739-1.798-1.546C101.169 39.152 99 39.608 99 38c0-.55.364-1 .809-1 .445 0 1.665-.626 2.712-1.392 1.617-1.182 1.703-1.633.569-3-1.824-2.197-4.409-2.018-6.652.46M150.5 33c.34.55 1.041 1 1.559 1s.941-.45.941-1-.702-1-1.559-1-1.281.45-.941 1M89 34.087C89 35.541 95.117 44 96.17 44c1.379 0 .971-1.104-2.274-6.162C90.934 33.222 89 31.74 89 34.087m9.667-.42c-1.215 1.214-.691 2.28.833 1.695.825-.317 1.5-.978 1.5-1.469 0-1.048-1.378-1.182-2.333-.226m57.586 4.284c-2.674 4.683-1.319 6.355 1.706 2.106 1.294-1.816 2.681-2.749 3.577-2.405 2.177.836 1.773-1.416-.47-2.617-2.562-1.371-2.262-1.553-4.813 2.916M149 36.594c0 1.545 2.557 1.932 3.43.52.301-.488-.347-1.121-1.441-1.407-1.289-.337-1.989-.025-1.989.887m12.411 4.933c-3.186 4.178-2.245 6.241.997 2.185 1.504-1.882 2.775-2.579 3.91-2.143 1.115.428 1.682.14 1.682-.855 0-1.231-1.929-2.714-3.531-2.714-.202 0-1.578 1.587-3.058 3.527m-76.756-.698C82.807 42.87 82.473 45 84 45c.55 0 1-.627 1-1.393s.675-1.652 1.5-1.969c1.912-.733 1.889-.161-.118 2.902-1.304 1.989-1.377 2.761-.378 3.965 1.678 2.022 2.258 1.909 5.473-1.072l2.77-2.566-2.811-2.934c-3.269-3.412-4.51-3.614-6.781-1.104M166 45c-2.483 2.483-2.53 4.211-.171 6.345 2.377 2.151 4.462 2.095 6.516-.174 4.718-5.213-1.376-11.14-6.345-6.171m-90.25.392C73.846 46.837 73.397 49 75 49c.55 0 1-.525 1-1.167 0-.641.289-.877.643-.524.353.354.059 1.345-.653 2.203-1.093 1.317-.852 2.023 1.545 4.524C80.242 56.862 83 57.941 83 56.174c0-.454-1.125-1.882-2.5-3.174S78 50.28 78 49.826c0-1.587 3.705-.809 5.479 1.15.983 1.087 2.215 1.713 2.737 1.391 1.483-.917-4.459-6.537-6.38-6.034-1.126.294-1.51-.02-1.154-.946.666-1.736-.641-1.734-2.932.005M88 45.5c-1.02 1.229-.951 1.5.378 1.5.892 0 1.622-.675 1.622-1.5s-.17-1.5-.378-1.5c-.207 0-.937.675-1.622 1.5m80.011.987c-1.288 1.552-.739 4.513.835 4.513 1.584 0 3.401-2.915 2.797-4.487-.736-1.918-2.054-1.927-3.632-.026m6.011 6.973c-1.34 2.452-2.146 4.749-1.792 5.104.983.982 9.083-2.003 9.594-3.536.276-.827-.086-1.145-.938-.825-.762.288-2.459.859-3.77 1.27-2.322.728-2.342.687-.75-1.586.899-1.282 1.634-2.907 1.634-3.61 0-2.481-1.57-1.225-3.978 3.183M71 56c-2.518 2.518-2.508 3.492.061 6.061 2.498 2.498 5.708 2.199 7.63-.71 1.288-1.951 1.178-2.391-1.181-4.75-3.126-3.126-3.912-3.199-6.51-.601m112.973-.25c-.015.413-1.815 1.853-4 3.201S176 61.987 176 62.701c0 2.083 1.352 1.535 5.43-2.201 2.102-1.925 4.215-3.5 4.696-3.5.481 0 .874-.45.874-1 0-1.145-2.986-1.392-3.027-.25M72 58.5c0 .825.177 1.5.393 1.5.216 0 .652-.675.969-1.5.316-.825.139-1.5-.393-1.5-.533 0-.969.675-.969 1.5m3.071.915c-.746.898-1.059 1.93-.697 2.292.934.934 2.932-1.29 2.452-2.729-.276-.828-.818-.693-1.755.437M183 61.965c0 .53.913 1.453 2.028 2.05 1.115.597 1.743 1.546 1.396 2.109-.371.599-1.234.165-2.085-1.051-2.764-3.945-7.747-1.393-5.369 2.749 2.633 4.587 2.632 4.587 6.428 2.241 3.977-2.458 4.558-4.888 1.773-7.408-2.022-1.83-4.171-2.186-4.171-.69M61.567 63.926c-2.019 2.231-1.777 4.912.577 6.395 1.276.803 2.396.402 5-1.791 2.918-2.457 3.401-2.596 3.7-1.071.371 1.893-1.256 4.041-3.061 4.041-.614 0-1.304.563-1.533 1.25-.589 1.768 3.283 1.574 5.113-.256 2.243-2.243 2.959-5.401 1.597-7.042-1.787-2.153-4.314-1.768-6.972 1.061-1.527 1.625-2.705 2.17-3.332 1.543-1.177-1.177.929-4.056 2.966-4.056.758 0 1.378-.45 1.378-1 0-1.711-3.602-1.097-5.433.926m118.959 2.033c-.359.58.07 1.333.954 1.672 2.2.844 2.884-.084 1.133-1.537-.985-.818-1.639-.86-2.087-.135m5.724 5.786c-1.787.89-3.25 2.223-3.25 2.962 0 1.073.621 1.023 3.072-.244 2.481-1.283 3.361-1.348 4.579-.338 1.293 1.074 1 1.51-2.072 3.087-2.983 1.53-4.838 3.788-3.113 3.788.399 0 7.375-3.04 8.384-3.653.85-.518-2.126-7.34-3.178-7.283-.644.035-2.635.792-4.422 1.681M195 75c0 .55.45 1 1 1s1-.45 1-1-.45-1-1-1-1 .45-1 1M58.571 79.571c-2.218 2.219-1.95 5.05.652 6.872 2.806 1.966 4.228 1.963 6.206-.014 2.445-2.446 1.893-5.211-1.379-6.903-3.628-1.876-3.556-1.877-5.479.045m130 2C185.374 84.769 187.326 89 192 89c3.144 0 5-1.67 5-4.5 0-4.278-5.253-6.104-8.429-2.929M59 82.559c0 .857.45 1.281 1 .941.55-.34 1-1.041 1-1.559S60.55 81 60 81s-1 .702-1 1.559m4-.7c0 .538-.275 1.694-.611 2.571-.448 1.166-.18 1.427 1 .974 1.796-.689 2.151-2.952.611-3.904-.55-.34-1-.178-1 .359m127 1.64c-.924 1.114-1.001 1.9-.258 2.643 1.538 1.538 5.436.022 5.053-1.966-.431-2.238-3.177-2.625-4.795-.677m-37.699 1.581c-3.085 1.527-4.782 3.283-6.396 6.616-2.159 4.461-2.167 4.631-.458 10.054 2.003 6.353 1.46 7.209-4.58 7.235-2.859.012-3.803.495-4.428 2.265-.618 1.752-.877 1.089-1.169-3-.374-5.246-.377-5.25-3.822-5.25H128v-6.5c0-5.111-.321-6.5-1.5-6.5-.825 0-1.5.648-1.5 1.441 0 2.493-1.634 2.608-6.494.459-6.274-2.775-10.71-1.932-15.61 2.969-5.438 5.438-7.353 15.178-4.399 22.381.548 1.337.224 1.75-1.371 1.75-1.466 0-2.266.819-2.686 2.75-2.32 10.675-1.862 10.189-15.405 16.361-6.856 3.125-12.615 6.13-12.798 6.678-.349 1.047 7.38 19.031 8.875 20.651.535.579 2.229.291 4.412-.75 4.519-2.155 4.664-2.136 4.289.56-.265 1.902.15 2.25 2.683 2.25 2.711 0 3.079-.399 3.881-4.198.72-3.415 1.448-4.394 3.903-5.25 1.66-.579 3.176-1.052 3.369-1.052.193 0 .351 1.575.351 3.5 0 3.91 2.39 4.94 3.309 1.425.786-3.003 4.243-.916 5.034 3.039.515 2.578 1.063 3.036 3.632 3.036 2.358 0 3.025-.441 3.025-2 0-1.563.667-2 3.05-2 3.548 0 7.679-1.938 10.296-4.83 1.013-1.119 2.44-1.806 3.171-1.525 1.693.649 2.843-1.68 4.392-8.895l1.234-5.75h10.573l1.892 7.205c1.783 6.787 2.051 7.198 4.642 7.1 1.512-.058 2.94-.15 3.171-.205.232-.055-.893-5.11-2.5-11.234-1.606-6.124-2.921-11.513-2.921-11.975 0-.462 1.43-1.579 3.178-2.483 3.002-1.552 3.25-1.54 4.497.225 6.313 8.935 15.375 10.403 23.261 3.768 3.202-2.695 5.508-8.918 4.462-12.044-2.271-6.783-13.132-32.371-14.738-34.72-3.818-5.585-11.324-7.039-18.359-3.557M52 87.608c0 .766.613 1.392 1.361 1.392.914 0 1.204.824.883 2.506-.629 3.29 1.314 5.494 4.843 5.494 2.998 0 5.307-2.769 4.726-5.668C63.383 89.187 52 85.599 52 87.608m142.667 2.059c-.367.366-.667 1.968-.667 3.559 0 1.818-.401 2.644-1.081 2.224-.603-.373-.805-1.768-.456-3.157.447-1.783.258-2.368-.669-2.064-1.898.624-2.143 5.237-.357 6.718 2.187 1.816 4.563.558 4.563-2.416 0-1.392.48-2.531 1.067-2.531.633 0 .794.864.395 2.118-.486 1.532-.297 1.994.683 1.667.745-.248 1.505-1.223 1.688-2.166.588-3.036-3.191-5.927-5.166-3.952M56 92.433c0 1.806 3.862 3.105 5.214 1.753 1.493-1.493.02-3.186-2.773-3.186-1.452 0-2.441.58-2.441 1.433m51.923 6.49c-4.478 4.478-3.625 11.417 2.034 16.538l2.162 1.957-.309-5.459c-.272-4.788-.587-5.498-2.56-5.779-1.237-.175-2.25-.963-2.25-1.75 0-1.113 1.663-1.43 7.508-1.43 7.259 0 7.467-.067 6.26-2-1.244-1.992-6.506-5-8.746-5-.647 0-2.491 1.315-4.099 2.923M192 102.987c0 .66.885 1.432 1.967 1.715 3.107.812 3.669 4.309 1.014 6.312-1.433 1.082-1.855 1.946-1.16 2.376 1.446.893 12.179-5.201 12.179-6.915 0-.817-2.214-1.793-5.724-2.522-3.149-.653-6.299-1.408-7-1.677-.702-.27-1.276.05-1.276.711M51.558 104.25c-1.026 3.377-1.306 5.785-.714 6.134.361.212 2.622.711 5.025 1.109 3.461.573 4.276.441 3.918-.635-.249-.747-1.765-1.587-3.369-1.868-4.558-.796-3.83-3.561.832-3.16 4.073.351 5.146-1.223 1.5-2.2-3.673-.984-6.787-.716-7.192.62M165 110.157c-9.451 3.988-11.816 5.36-10.872 6.305.733.732 21.279-8.184 21.689-9.412.517-1.552-.411-1.285-10.817 3.107m34-2.688c0 .892.587 1.243 1.494.895.822-.316 1.246-.976.941-1.469-.872-1.412-2.435-1.044-2.435.574m-80 6.451v5.919l4.039-1.586c2.221-.873 3.636-1.849 3.144-2.17-.492-.321-1.205-2.27-1.584-4.333-.575-3.128-1.097-3.75-3.144-3.75-2.33 0-2.455.301-2.455 5.92m9-1.885c0 3.725.154 3.953 2 2.965 2.348-1.256 2.332-1.176.839-4.453-1.694-3.718-2.839-3.118-2.839 1.488m-75.75 1.064c-1.237.46-2.25 1.616-2.25 2.569 0 1.347-.267 1.465-1.2.532-1.473-1.473-2.8-1.553-2.8-.169 0 .568.753 1.321 1.674 1.674.92.353 2.495 1.464 3.5 2.469 1.004 1.004 2.656 1.826 3.671 1.826 2.179 0 5.155-3.006 5.155-5.206 0-2.938-4.287-4.982-7.75-3.695m145 1.615c-4.294.545-4.185 2.286.143 2.286 2.094 0 3.613.574 3.969 1.5.986 2.571 2.725 1.641 2.339-1.25-.387-2.894-1.18-3.206-6.451-2.536M52 117c0 1.737.511 2.074 2.75 1.816 1.637-.188 2.75-.923 2.75-1.816s-1.113-1.628-2.75-1.816c-2.239-.258-2.75.079-2.75 1.816m78.884 8.248l.384 8.252 1.423-5.405c1.124-4.269 1.175-6.004.245-8.25-.648-1.565-1.462-2.846-1.807-2.847-.346-.002-.456 3.711-.245 8.25m-5.869-5.498c.009.412.396 1.351.862 2.085.643 1.014.976.834 1.391-.75.361-1.383.071-2.085-.862-2.085-.773 0-1.399.338-1.391.75m66.556 1.821c-3.915 3.916-.406 7.646 6.799 7.227 4.796-.279 5.151-.481 5.452-3.108.414-3.613-1.346-5.69-4.822-5.69-2.77 0-4.377 1.221-5.263 4-.263.825-.323.263-.133-1.25.4-3.176.124-3.335-2.033-1.179m5.679 1.08c-.687.284-1.25 1.183-1.25 1.999 0 1.028.844 1.386 2.75 1.166 1.625-.187 2.75-.924 2.75-1.802 0-1.559-2.125-2.24-4.25-1.363M46 124c0 .55.675 1 1.5 1s1.5-.45 1.5-1-.675-1-1.5-1-1.5.45-1.5 1m4 0c0 .55 2.025 1 4.5 1s4.5-.45 4.5-1-2.025-1-4.5-1-4.5.45-4.5 1m52.638 1.5c.317.825 1.033 1.5 1.591 1.5.586 0 .489-.635-.229-1.5-.685-.825-1.401-1.5-1.591-1.5-.19 0-.087.675.229 1.5M55 126.941c0 .518.45 1.219 1 1.559 1.96 1.211 1.018 3.5-1.441 3.5-2.661 0-4.199-1.487-2.575-2.49 1.482-.916 1.242-2.51-.377-2.51-2.2 0-2.799 3.057-1.107 5.641 1.891 2.886 4.833 3.026 7.5.359 2.411-2.411 2.487-3.37.429-5.429-1.756-1.755-3.429-2.063-3.429-.63m139.604 5.214c-1.539 2.197-.897 4.928 1.508 6.414.76.47.895-.259.436-2.349-.39-1.779-.228-3.3.393-3.684.669-.413 1.059.656 1.059 2.905 0 4.001 1.684 4.671 4.345 1.73 2.066-2.283 2.086-3.597.084-5.6-2.231-2.23-6.054-1.945-7.825.584m-57.047.67c-.812 2.555-.025 4.08 1.346 2.608.479-.513.538-1.833.131-2.933-.706-1.914-.77-1.9-1.477.325M200 134.559c0 .857.457 1.276 1.016.931.559-.346.758-1.047.441-1.559-.857-1.387-1.457-1.129-1.457.628m-144.676 1.159c-3.952.495-5.73 2.529-4.944 5.659.67 2.671 3.62 4.424 3.62 2.151 0-.776-.45-1.688-1-2.028-1.174-.725-1.342-2.5-.237-2.5.419 0 1.207 1.01 1.75 2.244 1.969 4.476 7.225 2.901 5.543-1.661-.423-1.145-.571-2.645-.329-3.333.242-.687.065-1.178-.394-1.09-.458.088-2.262.339-4.009.558m.676 3.664c0 .825.45 1.778 1 2.118.55.34 1-.057 1-.882s-.45-1.778-1-2.118c-.55-.34-1 .057-1 .882m23.5.796c-1.1.614-2.141 1.229-2.313 1.366-.172.137 1.588 4.008 3.913 8.603l4.225 8.353 1.342-5c1.239-4.621 1.176-5.36-.834-9.75-2.276-4.972-3.048-5.407-6.333-3.572m113.5.777c0 .525 1.575 1.25 3.5 1.611 4.993.937 4.629 3.434-.5 3.434-5.245 0-5.14 1.562.162 2.41 4.745.759 5.939-.023 6.426-4.207.316-2.715.045-3.002-3.372-3.567-5.114-.845-6.216-.789-6.216.319m-137 4.73c-1.375.227-3.175.687-4 1.022-.825.335-2.062.518-2.75.407-.687-.111-1.25.281-1.25.87 0 .695 1.755.871 5 .5 3.979-.455 5-.274 5 .889 0 .803.531 1.637 1.18 1.854 1.857.619.11 3.773-2.09 3.773-2.533 0-3.581-1.703-2.128-3.455.675-.812.756-1.601.2-1.945-.515-.318-1.503.105-2.196.941-2.049 2.469.305 6.459 3.813 6.459 1.551 0 3.361-.54 4.021-1.2 1.725-1.725 1.478-5.545-.428-6.612-1.114-.623-1.272-1.132-.5-1.609.62-.383 1.128-1.12 1.128-1.638 0-.958-.573-.987-5-.256m64.5.693c-1.881 1.391-1.894 1.52-.207 2.174 2.16.837 3.001.169 2.545-2.024-.301-1.452-.554-1.468-2.338-.15m70.973 4.666c-.37.599-.407 1.355-.082 1.681.325.325.124 1.155-.448 1.844-1.313 1.581-.333 2.185 4.902 3.022 5.167.826 5.78-1.195.655-2.157-2.032-.381-3.5-1.247-3.5-2.064 0-1.033.734-1.229 2.75-.735 1.512.37 2.991 1.037 3.286 1.481.64.967 4.964-.014 4.964-1.126 0-2.031-11.381-3.8-12.527-1.946M110 153.918c0 4.183 5.414 5.582 9.777 2.525 3.605-2.525 2.598-3.443-3.777-3.443-3.3 0-6 .413-6 .918M201 158c0 .55.45 1 1 1s1-.45 1-1-.45-1-1-1-1 .45-1 1m-144.429 1.571C53.374 162.769 55.326 167 60 167c3.144 0 5-1.67 5-4.5 0-4.278-5.253-6.104-8.429-2.929M189 158.922c0 .508 1.575 1.443 3.5 2.078 1.925.635 3.5 1.795 3.5 2.578 0 1.662-1.841 1.813-5.435.447-1.943-.739-2.565-.658-2.565.332 0 .719 1.681 1.823 3.736 2.454 4.233 1.299 5.595.496 6.621-3.908.542-2.331.209-2.716-3.242-3.75-4.651-1.394-6.115-1.449-6.115-.231m-131 2.577c-.924 1.114-1.001 1.9-.258 2.643 1.538 1.538 5.436.022 5.053-1.966-.431-2.238-3.177-2.625-4.795-.677m4.518 6.751c-.231.688-.606 2.375-.833 3.75-.401 2.431-.416 2.424-.549-.25-.144-2.909-1.825-3.723-2.744-1.328-.806 2.1 1.399 5.578 3.536 5.578 2.191 0 3.153-1.976 2.387-4.904-.315-1.204-.073-2.096.568-2.096.615 0 1.117 1.125 1.117 2.5s.412 2.5.917 2.5c1.481 0 1.858-2.325.771-4.75-1.08-2.409-4.477-3.066-5.17-1m123.089 1.332c-1.673 4.36.508 7.418 5.292 7.418 1.899 0 4.101-2.611 4.101-4.863 0-3.532-8.166-5.753-9.393-2.555m1.393 2.351c0 2.368 3.886 3.869 5.068 1.958 1.048-1.697-.751-3.891-3.19-3.891-1.19 0-1.878.709-1.878 1.933m-122.98 7.044c-2.292 2.737-3.916 5.382-3.609 5.879.524.847 7.271.605 12.38-.444 2.875-.591 1.906-2.412-1.283-2.412-2.681 0-4.405-3.503-2.607-5.301.604-.604 1.099-1.459 1.099-1.899 0-1.921-2.107-.449-5.98 4.177m117.385-.472c-1.323 2.019-1.401 2.795-.401 4 1.581 1.905 3.412 1.903 4.996-.005.685-.825 1.752-1.486 2.372-1.468.621.017.341.629-.622 1.36-2.134 1.62-2.242 2.608-.285 2.608.805 0 1.974-.952 2.597-2.117.901-1.682.81-2.44-.444-3.693-1.436-1.436-1.802-1.366-4.097.791-1.948 1.83-2.521 2.012-2.521.8 0-.862.675-1.826 1.5-2.143 1.932-.741 1.949-2.638.023-2.638-.812 0-2.215 1.127-3.118 2.505M65 181.5c-1.02 1.229-.951 1.5.378 1.5.892 0 1.622-.675 1.622-1.5s-.17-1.5-.378-1.5c-.207 0-.937.675-1.622 1.5m105.514 9.129c-.896.896-1.392 2.246-1.103 3 .295.768-.104 1.371-.907 1.371-2.375 0-3.762 3.649-2.375 6.25 1.071 2.01 1.028 2.109-.401.931-2.268-1.871-5.728.134-5.728 3.319 0 3.507 3.552 5.215 6.083 2.925 1.752-1.585 1.917-1.592 1.917-.08 0 .91-.675 1.655-1.5 1.655s-1.5.45-1.5 1 .878 1 1.95 1c2.544 0 4.178-2.892 2.941-5.204-1.351-2.525-.023-6.968 1.968-6.585 2.521.486 2.707 3.789.214 3.789-1.14 0-2.073.45-2.073 1 0 1.54 3.603 1.184 4.996-.495.682-.822 1.004-2.397.715-3.501-.302-1.157-.114-1.753.445-1.407 1.366.844 4.844-2.543 4.844-4.717 0-1.757-3.242-4.305-4.226-3.321-.269.269-1.058-.197-1.754-1.035-1.609-1.938-2.483-1.918-4.506.105m1.083 1.215c-.346.56-.142 1.319.453 1.687 1.538.95 2.53-.351 1.246-1.635-.718-.718-1.277-.735-1.699-.052M75 192.81c0 .563.53 1.2 1.177 1.416.647.215-.48 1.416-2.506 2.668-2.026 1.252-3.426 2.694-3.111 3.204.316.51 1.112.584 1.77.164 8.387-5.34 10.305-7.262 7.252-7.262-.78 0-2.13-.273-3-.607-.87-.334-1.582-.146-1.582.417m100.667 1.857c-1.268 1.267-.659 2.333 1.333 2.333 1.111 0 2-.667 2-1.5 0-1.522-2.115-2.051-3.333-.833m-7.687 2.857c-.696.838-.914 1.851-.486 2.25.429.399.981.164 1.226-.524.246-.687 1.561-1.25 2.922-1.25 1.396 0 2.206-.436 1.858-1-.929-1.503-4.087-1.203-5.52.524m-88.618.976c-.317.825-1.148 1.5-1.847 1.5-3.891 0-4.217 6.325-.388 7.54 2.282.725 7.797-3.908 7.845-6.59.061-3.366-4.495-5.356-5.61-2.45m1.638 2c0 .825.45 1.5 1 1.5s1-.675 1-1.5-.45-1.5-1-1.5-1 .675-1 1.5m-4.554 2.587c-1.03 1.668 1.287 3.58 2.667 2.2C80.267 204.133 79.545 202 78 202c-.485 0-1.184.489-1.554 1.087m86.212.588c-1.369 1.369-.58 3.325 1.342 3.325 1.1 0 2-.395 2-.878 0-1.311-2.585-3.204-3.342-2.447m-7.098 5.943c-.743 2.957.121 4.516 1.377 2.484.626-1.012 1.391-.578 3.133 1.779 2.223 3.006 3.93 4.006 3.93 2.301 0-1.104-6.252-9.182-7.106-9.182-.372 0-.973 1.178-1.334 2.618m-71.58.42c-1.325 2.474-.619 5.082 1.781 6.58 1.504.94 2.384.423 5.626-3.304 3.6-4.139 4.41-7.051 1.226-4.408-.978.812-1.641.857-2.083.143-1.122-1.816-5.395-1.171-6.55.989m1.627 1.544c-.876 2.284-.805 2.418 1.286 2.418 1.899 0 3.491-2.283 2.371-3.402-1.12-1.121-3.049-.602-3.657.984m6.508 2.05c-2.784 1.95-2.746 5.96.071 7.467 1.893 1.014 2.496.809 4.503-1.524 1.769-2.057 2.087-3.126 1.342-4.517-1.404-2.623-3.489-3.126-5.916-1.426M94.5 216c.34.55.816 1 1.059 1s.441-.45.441-1-.477-1-1.059-1-.781.45-.441 1m47.79 1c.335 1.282.03 2-.848 2-.755 0-1.869.93-2.478 2.067-.86 1.608-.752 2.608.488 4.5 2.572 3.926 8.37 2.683 7.261-1.557-.543-2.076-.475-2.104 1.273-.522 1.466 1.326 2.278 1.441 3.931.557 2.735-1.464 2.696-5.502-.072-7.441-2.527-1.77-5.797-.566-5.924 2.181-.048 1.038-.476.629-1.083-1.035-1.147-3.14-3.342-3.786-2.548-.75m-36.103 3.552c-1.216 2.503-2.663 4.272-3.215 3.93-.553-.341-.746-1.039-.429-1.551.316-.512-.127-.931-.984-.931-1.85 0-2.05 2.109-.359 3.8 1.883 1.883 4.393 1.411 5.58-1.05 1.062-2.203 1.086-2.192 1.152.531.067 2.76.748 3.349 4.536 3.921 1.476.224 2.133-.451 2.631-2.702.641-2.897.668-2.869.783.809.138 4.455 2.118 4.111 2.118-.368 0-1.948.507-2.941 1.5-2.941 1.048 0 1.5 1.056 1.5 3.5 0 1.925.45 3.5 1 3.5 1.477 0 1.24-7.989-.25-8.445-.687-.21-2.725-.637-4.529-.949-3.012-.521-3.327-.325-3.875 2.413-.341 1.704-1.233 2.981-2.082 2.981-1.157 0-1.341-.775-.83-3.5.377-2.008.251-3.5-.295-3.5-.523 0-.716-.9-.429-2 .963-3.681-1.286-2.052-3.523 2.552M92 217.972c0 1.356 1.777 2.198 2.425 1.149.31-.501-.109-1.169-.931-1.485-.822-.315-1.494-.164-1.494.336m56 .997c0 .532.675.709 1.5.393.825-.317 1.5-.753 1.5-.969 0-.216-.675-.393-1.5-.393s-1.5.436-1.5.969M124 220c0 .55.702 1 1.559 1s1.281-.45.941-1c-.34-.55-1.041-1-1.559-1s-.941.45-.941 1m26.114.929c-.859.532-.962 1.047-.29 1.462.571.353 1.339.154 1.707-.441.918-1.486.188-2.012-1.417-1.021m-8.934 2.243c.472 3.201 2.82 3.544 2.82.411 0-1.68-.549-2.583-1.57-2.583-1.042 0-1.462.729-1.25 2.172M124 226.5c0 2.475.45 4.5 1 4.5s1-2.025 1-4.5-.45-4.5-1-4.5-1 2.025-1 4.5m3.667-3.833c-1.214 1.214-.692 6.068.785 7.293 3.305 2.743 7.329-.713 6.176-5.305-.523-2.087-1.269-2.655-3.48-2.655-1.548 0-3.115.3-3.481.667m1.513 3.583c.176 1.238.995 2.25 1.82 2.25.825 0 1.644-1.012 1.82-2.25.245-1.732-.174-2.25-1.82-2.25-1.646 0-2.065.518-1.82 2.25" fill="#1976D2" fill-rule="evenodd"/><path fill-opacity=".583" d="M137.628 26.75c-.345 2.063-.905 4.762-1.244 6-.355 1.294-.172 2.25.43 2.25.576 0 1.191-1.013 1.367-2.25.266-1.871.868-2.207 3.57-1.996 4.074.318 4.281-1.298.269-2.1-2.22-.444-2.822-1.008-2.36-2.21.473-1.234 1.412-1.466 3.98-.984 1.848.347 3.36.216 3.36-.29 0-.848-4.568-2.17-7.497-2.17-.686 0-1.53 1.688-1.875 3.75m-15.248-.298c-.769 2.003.372 3.548 2.62 3.548 1.035 0 2.162.453 2.504 1.007 1.014 1.639-2.387 2.335-4.179.855-1.41-1.164-1.578-1.144-1.154.138.289.875 1.705 1.5 3.399 1.5 3.886 0 4.541-3.037 1.001-4.65-3.338-1.521-3.329-3.257.013-2.418 1.675.42 2.358.283 1.941-.392-.963-1.558-5.506-1.253-6.145.412m-10.345 1.483c-1.562 2.918.34 7.065 3.24 7.065 2.889 0 4.725-1.749 4.725-4.5 0-4.393-5.96-6.312-7.965-2.565m1.303.627c-.788 2.052.832 4.938 2.771 4.938 2.16 0 1.822-5.89-.362-6.31-.964-.186-2.048.431-2.409 1.372m-7.205.334c-1.113.705-1.145 1.539-.172 4.485.657 1.991 1.586 3.619 2.065 3.619.478 0 .396-1.359-.183-3.021-.781-2.24-.736-3.403.174-4.5 1.346-1.621.277-1.951-1.884-.583m42.438 2.675c-3.527 3.527-.833 9.327 3.631 7.817 2.22-.752 2.199-.797-.62-1.333-1.604-.305-3.127-1.186-3.383-1.957-.468-1.406.942-1.296 5.051.396 2.57 1.058 2.397-4.077-.184-5.459-2.502-1.339-2.635-1.323-4.495.536m-50.847.563C94.449 33.967 96.584 41 100.416 41c1.726 0 5.088-3.829 4.17-4.748-.405-.404-1.175.048-1.711 1.006-1.049 1.875-3.875 2.401-3.875.721 0-.562 1.111-1.528 2.469-2.147 2.608-1.188 2.525-2.23-.301-3.742a3.619 3.619 0 00-3.444.044m52.276.759c0 1.014 3.046 2.395 3.743 1.697.252-.251.161-.937-.202-1.523-.798-1.291-3.541-1.426-3.541-.174m-61 .677c0 .454 5.245 8.599 6.662 10.347.186.229.595.159.91-.156.659-.658-5.692-10.625-6.822-10.707-.412-.03-.75.202-.75.516m8.459.497c-.363.586-.454 1.272-.202 1.523.697.698 3.743-.683 3.743-1.697 0-1.252-2.743-1.117-3.541.174m59.521 3.466c-1.18 1.909-1.956 4.032-1.724 4.719.232.686 1.203-.258 2.159-2.099 1.286-2.478 2.236-3.216 3.661-2.843 2.482.649 2.474-.485-.013-2.039-1.704-1.064-2.196-.792-4.083 2.262m4.718 3.979c-1.481 1.855-2.293 3.621-1.804 3.922.488.302 1.65-.615 2.582-2.037 1.15-1.755 2.309-2.425 3.609-2.085 2.425.634 2.503-.927.11-2.208-1.451-.776-2.334-.303-4.497 2.408m-77.043-.683C82.866 42.806 82.46 45 83.883 45c.486 0 1.119-.9 1.407-2 .287-1.1 1.063-2 1.723-2 .757 0 .929.647.465 1.75-.404.962-.955 2.763-1.223 4-.607 2.797 1.825 3.037 5.175.51l2.306-1.739-2.487-3.261c-2.837-3.72-4.246-4.026-6.594-1.431m3.435 4.003c-1.338 2.5.179 3.754 1.954 1.615.899-1.084.96-1.843.206-2.597-.753-.753-1.385-.466-2.16.982m79.133-.275c-2.79 1.953-2.911 6.005-.223 7.443 4.35 2.328 8.755-3.403 5.435-7.072-2.108-2.329-2.389-2.349-5.212-.371m-91.644 1.498c-1.056 1.065-1.614 2.243-1.239 2.618.67.67 3.566-2.46 3.628-3.923.044-1.037-.195-.906-2.389 1.305m91.396.992c-.857 1.6-.867 2.461-.04 3.288 1.524 1.524 4.565-.428 4.565-2.93 0-2.686-3.146-2.934-4.525-.358m-89.699 1.35l-2.084 2.397 3.404 3.299C80.468 55.908 82 56.924 82 56.351c0-.572-.9-1.856-2-2.851-1.1-.995-2-2.389-2-3.096 0-2.619 2.247-2.542 5.081.174C84.687 52.116 86 52.924 86 52.374 86 51.37 80.84 46 79.876 46c-.284 0-1.453 1.079-2.6 2.397m96.927 5.455c-1.191 2.119-1.913 4.105-1.605 4.413.622.622 9.402-2.151 9.402-2.97 0-.285-1.599-.218-3.554.149l-3.555.667 1.58-3.055c2.304-4.456.286-3.747-2.268.796m-103.596 2.73c-1.097 2.859-.641 4.35 1.826 5.966C75.626 64.64 79 63.026 79 59.406c0-1.388-.43-2.258-.956-1.933-.526.325-.705 1.248-.397 2.051.317.824-.156 1.734-1.086 2.091-2.496.958-3.014-.275-1.249-2.969.871-1.329 1.307-2.693.969-3.031-1.23-1.231-5.083-.574-5.674.967m1.373.942c-.696.838-.987 1.803-.647 2.143.727.726 3.667-1.511 3.667-2.789 0-1.378-1.63-1.029-3.02.646M179 60c-1.925 1.62-3.078 2.958-2.562 2.973 1.284.037 7.547-4.293 7.555-5.223.013-1.384-1.469-.716-4.993 2.25M61.452 64.433c-1.24 1.892-1.348 2.892-.488 4.5 1.437 2.685 2.239 2.608 6.02-.573 2.156-1.815 3.459-2.317 4.169-1.607C72.497 68.097 70.497 72 68.465 72c-.806 0-1.465.45-1.465 1 0 1.42 1.211 1.241 3.777-.557 2.64-1.849 3.054-6.91.641-7.836-2.174-.834-1.999-.9-5.013 1.893-3.289 3.049-4.405 3.152-4.405.406 0-1.252.803-2.303 2-2.616 2.318-.606 2.703-2.29.523-2.29-.812 0-2.194 1.095-3.071 2.433M185.25 63.08c1.681.979 2.48 3.92 1.064 3.92-.377 0-1.693-.947-2.926-2.105-3.933-3.695-6.086.34-2.599 4.872l1.745 2.267 3.375-2.817c2.989-2.495 3.24-3.069 2.198-5.017-.648-1.21-1.949-2.186-2.892-2.17-1.598.029-1.596.1.035 1.05M180 65.878c0 1.278 2.94 3.515 3.667 2.789.726-.727-1.511-3.667-2.789-3.667a.88.88 0 00-.878.878m6.755 6.064c-2.06.857-3.747 1.944-3.75 2.415-.003.471.782.533 1.745.137 3.847-1.584 5.49-1.724 6.227-.531.425.688 1.014.86 1.309.383.295-.478.014-1.564-.625-2.415-1.047-1.396-1.527-1.395-4.906.011M195 75c0 .55.45 1 1 1s1-.45 1-1-.45-1-1-1-1 .45-1 1m-7 3c-1.925 1.054-2.923 1.935-2.218 1.958 1.634.053 8.218-2.676 8.218-3.407 0-1.061-2.531-.45-6 1.449M58.04 80.452c-1.735 2.091-.901 4.809 1.906 6.208 4.071 2.03 8.267-1.759 6.086-5.496-.965-1.654-1.113-1.414-1.388 2.248-.079 1.052-.736 2.112-1.459 2.355-1.003.338-1.155-.412-.639-3.162.593-3.158.43-3.605-1.312-3.605-1.094 0-2.531.653-3.194 1.452m1.359.952c-1.036 2.698.162 4.285 1.436 1.904.772-1.441.826-2.399.161-2.811-.556-.343-1.274.065-1.597.907M189 82c-1.1 1.1-2 2.418-2 2.929 0 1.587 3.051 4.071 5 4.071 2.17 0 5-2.547 5-4.5 0-1.782-2.761-4.5-4.571-4.5-.786 0-2.329.9-3.429 2m.667.667c-.367.366-.667 1.521-.667 2.566 0 2.939 5.392 2.028 5.82-.983.255-1.798-.164-2.25-2.084-2.25-1.321 0-2.703.3-3.069.667m-34.926 1.762c-4.634 1.654-6.459 3.126-8.307 6.699-1.852 3.581-1.82 8.011.089 12.581 1.816 4.347.982 5.252-4.867 5.276-2.995.012-3.959.456-4.366 2.015-1.107 4.233-3.246.805-3.276-5.25-.012-2.386-.411-2.75-3.014-2.75h-3v-6c0-4.442-.359-6-1.383-6-.761 0-1.626.927-1.922 2.06l-.539 2.06-4.038-2.06c-8.217-4.192-16.156-1.745-19.981 6.158-2.314 4.779-2.882 13.692-1.162 18.217.877 2.306.736 2.565-1.391 2.565-1.755 0-2.539.712-3.031 2.75-2.588 10.721-1.358 9.473-15.559 15.791C71.847 141.72 66 144.523 66 144.768c0 1.999 9.605 21.205 10.432 20.86.587-.246 2.745-1.164 4.794-2.04l3.725-1.594-.6 3.003c-.545 2.724-.358 3.003 2.01 3.003 2.246 0 2.763-.607 3.707-4.354.875-3.478 1.783-4.682 4.514-5.984l3.418-1.63v3.984c0 2.875.418 3.984 1.5 3.984.833 0 1.5-.889 1.5-2 0-3.929 4.179-2.091 5.683 2.5.733 2.234 1.6 3 3.4 3 1.688 0 2.375-.528 2.278-1.75-.104-1.307.617-1.75 2.849-1.75 3.735 0 9.597-2.718 11.12-5.156.633-1.014 2.1-1.844 3.26-1.844 1.799 0 2.316-.993 3.51-6.75l1.4-6.75h12l1.4 6.75c1.333 6.427 1.537 6.75 4.25 6.75 1.568 0 2.84-.338 2.828-.75-.012-.412-1.316-5.825-2.898-12.027l-2.877-11.277 2.849-1.473c4-2.069 5.457-1.847 6.767 1.029.627 1.377 2.612 3.4 4.411 4.497 8.905 5.429 21.77-1.12 21.77-11.084 0-4.389-12.547-34.694-15.804-38.171-1.42-1.516-4.183-3.201-6.139-3.745-4.276-1.188-3.699-1.218-8.316.43M53.202 88.357c1.036.788 1.495 2.086 1.172 3.319C53.757 94.038 56.302 97 58.949 97c2.033 0 3.505-1.515 4.437-4.565.547-1.79-.08-2.289-4.715-3.75-6.34-1.998-7.781-2.085-5.469-.328m141.92 1.921c-.617.617-1.122 2.157-1.122 3.422 0 1.265-.502 2.3-1.117 2.3-.656 0-.916-1.047-.631-2.54.307-1.604.074-2.402-.633-2.167-1.669.556-1.85 3.009-.372 5.031 1.907 2.607 4.753 1.151 4.753-2.431 0-1.591.502-2.893 1.117-2.893.651 0 .917 1.041.638 2.5-.477 2.499.574 3.395 1.751 1.491 1.704-2.757-2.173-6.924-4.384-4.713m-138.898.898C54.725 92.675 56.452 95 59.063 95c2.444 0 3.385-1.755 1.901-3.544-1.462-1.761-3.158-1.862-4.74-.28m51.228 7.47c-1.829 1.974-2.452 3.762-2.452 7.039 0 3.761.577 4.998 4.015 8.604l4.014 4.211-.264-5.5c-.222-4.609-.63-5.66-2.515-6.487C105.661 104.5 107.688 103 115 103c3.85 0 7-.41 7-.911 0-.501-1.385-2.076-3.077-3.5-4.055-3.412-8.275-3.391-11.471.057m-55.182 5.558c-.577.713-1.043 2.492-1.035 3.953.013 2.361.455 2.699 3.965 3.033 4.982.476 5.956-.751 1.291-1.626-2.635-.494-3.491-1.156-3.491-2.697 0-1.829.418-1.972 4-1.367 2.63.444 4 .303 4-.412 0-.598-1.088-1.088-2.418-1.088s-3.058-.245-3.84-.546c-.782-.3-1.894.038-2.472.75M193 104c0 .55.9 1 2 1 2.587 0 2.768 4.718.252 6.558-.962.703-1.504 1.523-1.204 1.823.774.774 11.262-5.678 11.158-6.864-.048-.541-2.251-1.545-4.896-2.231-5.879-1.525-7.31-1.581-7.31-.286m-24 4.139a3510.466 3510.466 0 01-11.43 4.831c-3.633 1.525-4.637 2.363-3.813 3.187.823.823 3.831-.02 11.43-3.206 11.695-4.902 11.992-5.078 11.021-6.521-.466-.693-2.931-.109-7.208 1.709m29-1.198c0 1.743 1.692 2.005 3.603.559 1.797-1.361 1.753-1.438-.853-1.468-1.512-.018-2.75.391-2.75.909m-79 6.559c0 3.575.195 6.5.434 6.5s3.164-1.184 6.5-2.631c6.119-2.653 6.94-3.867 5.031-7.435-1.685-3.148-2.965-2.22-2.965 2.149 0 2.822-.386 3.955-1.25 3.667-.687-.228-1.38-1.278-1.539-2.333-.857-5.687-1.281-6.417-3.73-6.417-2.387 0-2.481.247-2.481 6.5m-67.8.7c-2.854 2.854-.553 6.8 3.965 6.8 4.159 0 5.831-4.967 2.435-7.235-1.691-1.129-5.065-.9-6.4.435m-4.2 1.682c0 .55.45 1.278 1 1.618.55.34 1 .168 1-.382s-.45-1.278-1-1.618c-.55-.34-1-.168-1 .382m4.476.157c-.392.634-.035 1.831.794 2.66 1.933 1.932 5.973.811 5.528-1.534-.37-1.955-5.271-2.827-6.322-1.126M194 116c0 .55 1.8 1 4 1 2.956 0 4 .407 4 1.559 0 .857.408 1.307.906.999.498-.308.671-1.46.383-2.559-.422-1.615-1.364-1.999-4.906-1.999-2.41 0-4.383.45-4.383 1m-64.204 7.748c.362 8.244.916 10.336 2.192 8.272 1.566-2.534 2.237-10.731 1.059-12.933-2.272-4.245-3.56-2.398-3.251 4.661m-3.662-4.835c-1.019.633-1.1 1.324-.318 2.718.97 1.728 1.099 1.739 1.711.152.94-2.439.238-3.884-1.393-2.87m69.403 2.692c-.937.938-1.355 2.394-1.004 3.5.342 1.075.126 1.895-.497 1.895-1.803 0-2.361-2.903-.898-4.675 1.164-1.41 1.144-1.578-.138-1.154-.877.29-1.5 1.707-1.5 3.412 0 2.871.096 2.922 6.092 3.211l6.092.293-.187-3.139c-.284-4.764-4.688-6.614-7.96-3.343m.826 1.892c-.346.901-.164 2.102.404 2.67 1.524 1.524 5.407-.021 5.03-2.002-.43-2.258-4.626-2.773-5.434-.668M50 124c0 .55 2.025 1 4.5 1s4.5-.45 4.5-1-2.025-1-4.5-1-4.5.45-4.5 1m52 .75c0 2.228 1.513 3.847 2.342 2.505.264-.427-.154-1.646-.931-2.707-1.377-1.884-1.411-1.879-1.411.202m-51.616 3.692c-1.309 3.412.034 5.058 4.13 5.058 3.737 0 3.986-.182 3.986-2.917 0-1.705-.623-3.122-1.5-3.412-1.303-.431-1.314-.271-.086 1.217 1.225 1.483 1.206 1.921-.138 3.265-.981.98-2.331 1.306-3.664.882-2.355-.747-2.728-2.519-.912-4.335.933-.933.926-1.2-.031-1.2-.678 0-1.481.649-1.785 1.442m87.232 2.808c-1.376 3.906-1.496 4.706-.775 5.152.415.256 1.35.098 2.079-.352 1-.619 1.078-1.52.318-3.684-.82-2.338-1.119-2.544-1.622-1.116m57.98.056c-2.099 1.535-1.835 5.795.404 6.528 1.282.42 1.302.251.138-1.159-1.437-1.741-.916-4.675.831-4.675.567 0 1.031 1.575 1.031 3.5 0 3.826.209 3.994 3.066 2.465 3.645-1.951 1.524-7.965-2.809-7.965-.481 0-1.678.588-2.661 1.306m4.132 2.627c-.297 1.136-.129 2.319.373 2.629 1.312.812 2.358-2.503 1.166-3.695-.665-.665-1.18-.309-1.539 1.066M142.5 136c-.34.55-.141 1 .441 1s1.059-.45 1.059-1-.198-1-.441-1-.719.45-1.059 1m-89.665.673c-.916.242-1.869.978-2.118 1.634-.651 1.712 1.009 5.693 2.373 5.693.837 0 .816-.409-.079-1.487-.679-.818-.926-2.281-.548-3.25.566-1.455.927-1.195 2.063 1.487 2.265 5.345 6.222 3.932 4.969-1.774-.656-2.987-2.14-3.5-6.66-2.303M55.71 140c.288 1.1 1.194 2 2.014 2 .948 0 1.269-.575.883-1.582-.334-.87-.607-1.77-.607-2 0-.23-.633-.418-1.406-.418-.914 0-1.224.7-.884 2m24.04-.428c-1.513.821-2.75 1.937-2.75 2.482 0 .545 1.881 4.693 4.18 9.218l4.181 8.228 1.243-4c.683-2.2 1.277-5 1.319-6.223.078-2.246-3.853-11.311-4.872-11.237-.303.022-1.788.711-3.301 1.532M194 140.818c0 .423 1.463 1.199 3.25 1.725 4.7 1.384 4.337 4.042-.5 3.664-2.24-.175-3.75.15-3.75.807 0 .675 1.62.982 4.183.793 3.631-.266 4.282-.678 4.93-3.116.799-3.012.665-3.124-4.863-4.079-1.787-.309-3.25-.216-3.25.206m-73.75 4.844c-1.794.724-1.541 3.013.417 3.764 2.142.822 3.581-.617 2.759-2.759-.663-1.727-1.068-1.855-3.176-1.005M53 147c-1.146.74-.791.956 1.5.914 1.65-.03 3.9-.441 5-.914 1.634-.702 1.36-.869-1.5-.914-1.925-.031-4.175.381-5 .914m-4.5 1c-.34.55-.141 1 .441 1S50 148.55 50 148s-.198-1-.441-1-.719.45-1.059 1m11.021 3.024c2.21 2.441.903 4.316-2.656 3.807-1.776-.253-2.306-.897-2.127-2.584.131-1.236-.206-2.247-.75-2.247-1.392 0-1.233 4.355.212 5.8 1.576 1.576 3.979 1.521 6.256-.144 2.262-1.654 1.413-6.656-1.13-6.656-1.45 0-1.428.23.195 2.024m132.104.511c-.408 1.063.132 1.264 2.256.839 1.836-.367 3.339-.011 4.392 1.041 1.003 1.003 1.836 1.218 2.232.576.348-.563 1.052-.765 1.564-.448 1.364.843 1.136-.493-.319-1.864-1.853-1.747-9.468-1.855-10.125-.144m-81.74 1.215c-.919 5.981 4.277 8.271 9.48 4.177 4.439-3.491 3.458-4.927-3.365-4.927-3.3 0-6.052.338-6.115.75M191 155.034c0 .479 1.688 1.341 3.75 1.913 4.691 1.303 5.953 1.342 4.7.146-1.417-1.353-8.45-3.067-8.45-2.059M201 158c0 .55.45 1 1 1s1-.45 1-1-.45-1-1-1-1 .45-1 1m-144 2c-1.1 1.1-2 2.418-2 2.929 0 1.587 3.051 4.071 5 4.071 2.17 0 5-2.547 5-4.5 0-1.782-2.761-4.5-4.571-4.5-.786 0-2.329.9-3.429 2m133-1.046c0 .468 1.385 1.333 3.078 1.923 2.171.757 2.964 1.597 2.691 2.848-.213.976-.819 1.697-1.347 1.602-.528-.095-2.301-.491-3.941-.879-2.246-.532-2.713-.419-1.895.459.598.641 2.674 1.423 4.615 1.738 3.261.529 3.61.335 4.627-2.581.836-2.4.809-3.242-.114-3.521-.668-.202-2.677-.833-4.464-1.403-1.787-.57-3.25-.653-3.25-.186m-132.333 1.713c-.367.366-.667 1.521-.667 2.566 0 2.939 5.392 2.028 5.82-.983.255-1.798-.164-2.25-2.084-2.25-1.321 0-2.703.3-3.069.667m5 7c-.367.366-.667 1.968-.667 3.559 0 1.796-.405 2.642-1.068 2.232-.588-.363-.827-1.29-.532-2.059.296-.77.101-1.399-.431-1.399-1.499 0-1.144 3.61.487 4.964 2.067 1.715 3.544.421 3.544-3.106 0-1.99.428-2.873 1.25-2.581.688.244 1.138 1.433 1.001 2.641-.142 1.258.179 1.934.75 1.581.55-.339.999-1.4.999-2.358 0-3.011-3.51-5.298-5.333-3.474m123.373 1.785c-1.764 2.126-.896 4.771 2.122 6.465 2.207 1.239 2.913 1.266 4.243.162 2.195-1.822 2.005-5.789-.339-7.044-2.671-1.429-4.605-1.295-6.026.417m.468 1.534c-1.024 1.658 1.53 4.151 3.904 3.812 3.227-.461 2.763-4.22-.568-4.605-1.46-.169-2.961.188-3.336.793M64.75 178.453c-4.469 5.228-4.671 6.551-1 6.536 4.69-.019 10.25-1.205 10.25-2.187 0-.515-.896-.652-1.992-.305-2.544.808-5.105-3.8-3.181-5.724.645-.645 1.173-1.533 1.173-1.973 0-1.707-1.649-.56-5.25 3.653m117.831-.891c-1.815 1.815-2.085 5.008-.507 5.984.591.365 2.082-.284 3.314-1.441 1.233-1.158 2.549-2.105 2.926-2.105 1.329 0 .665 2.296-1.064 3.68-1.641 1.313-1.625 1.381.25 1.1 2.253-.338 3.312-4.368 1.598-6.082-.762-.762-1.767-.418-3.479 1.19-1.325 1.245-2.651 1.87-2.948 1.389-.699-1.132.438-2.851 2.28-3.444.991-.319 1.095-.686.33-1.159-.616-.381-1.831.019-2.7.888M64.2 181.2c-1.856 1.856-1.432 2.567 1.229 2.058 1.57-.3 2.239-.958 1.893-1.861-.657-1.713-1.55-1.769-3.122-.197m106.467 9.467c-1.386 1.385-.592 4.54 1.264 5.025 1.062.278 2.153 1.085 2.425 1.793.332.866-.139 1.123-1.436.784-1.062-.278-2.614.062-3.449.755-1.989 1.65-3.126.471-1.471-1.524 1.946-2.345.587-2.806-1.494-.506-1.755 1.939-1.754 2.074.028 4.044 1.6 1.768 1.958 1.834 2.705.5.473-.846 1.738-1.538 2.811-1.538 2.845 0 2.581 3.751-.3 4.255-1.985.347-2.043.486-.487 1.181 2.541 1.136 5.005-1.231 4.282-4.112-.463-1.847-.176-2.324 1.401-2.324 2.09 0 4.544-3.398 3.58-4.957-.713-1.154-6.439-4.043-8.013-4.043-.649 0-1.48.3-1.846.667M171.5 192c-.816 1.32.38 3.192 1.569 2.457 1.215-.75 1.207-3.457-.01-3.457-.518 0-1.219.45-1.559 1m-96.058 1.094c-.308.498.029.918.749.933.72.015-.266 1.353-2.191 2.973-1.925 1.62-3.153 2.958-2.729 2.973 1.182.041 8.729-5.137 8.729-5.989 0-1.151-3.923-1.917-4.558-.89m99.894 1.473c-.834 2.172 1.282 4.215 2.797 2.7 1.28-1.28.487-4.267-1.133-4.267-.585 0-1.333.705-1.664 1.567m-96.433 4.414a562.716 562.716 0 00-3.619 3.008c-1.512 1.276-.641 3.75 1.778 5.044 1.46.781 2.44.324 4.878-2.278 3.338-3.562 3.673-4.742 1.86-6.555-1.609-1.609-2.092-1.531-4.897.781m1.64.95c-.74 1.197 1.141 2.382 2.473 1.559 1.119-.691.384-2.49-1.016-2.49-.485 0-1.141.419-1.457.931M76.5 203c-.837 1.354.292 3 2.059 3 .793 0 1.441-.9 1.441-2 0-2.07-2.413-2.76-3.5-1m83.985 1.048c-1.269 3.997 4.31 6.928 6.327 3.324.652-1.166 1.118-1.294 1.638-.453 1.104 1.787-.257 4.369-1.958 3.716-.821-.315-1.492-.105-1.492.466 0 .571 1.012.894 2.25.719 3.167-.45 3.516-4.376.658-7.418-2.802-2.983-6.532-3.161-7.423-.354m1.684 1.113c.182 1.286 1.006 2.339 1.831 2.339 2.169 0 1.87-3.901-.331-4.325-1.42-.274-1.757.172-1.5 1.986m-6.375 4.134c-.284 1.488-.129 2.705.345 2.705.473 0 .861-.546.861-1.212 0-.667 1.306.346 2.902 2.25 1.597 1.904 3.153 3.219 3.458 2.921.305-.297-1.156-2.527-3.247-4.955l-3.802-4.414-.517 2.705m-71.162.82c-1.697 2.423-1.198 4.512 1.415 5.91 1.467.785 2.396.261 4.882-2.755 3.169-3.844 4.149-6.41 1.66-4.344-.965.801-1.616.839-2.059.123-1.087-1.759-4.33-1.172-5.898 1.066m1.379.372c-1.288 1.552-.739 4.513.835 4.513 1.584 0 3.401-2.915 2.797-4.487-.736-1.918-2.054-1.927-3.632-.026m4.821 4.983c-1.378 3.023.302 5.591 3.54 5.414 2.023-.11 2.029-.141.128-.616-2.234-.558-3.629-2.25-2.868-3.481.274-.445 1.47-.129 2.656.702 2.969 2.08 3.712 1.903 3.712-.882 0-4.137-5.411-4.995-7.168-1.137m2.168-.577c0 1.014 3.046 2.395 3.743 1.697.252-.251.161-.937-.202-1.523-.798-1.291-3.541-1.426-3.541-.174m49.604 2.517c.325.847-.286 1.672-1.532 2.067-2.505.795-2.784 4.668-.501 6.952 1.884 1.883 2.406 1.904 4.669.187 1.621-1.232 1.632-1.637.156-5.969-.871-2.556-1.978-4.647-2.459-4.647-.481 0-.631.634-.333 1.41m4.371.12c-2.127 2.563.347 6.682 3.775 6.286 1.83-.212 2.831-.977 3.031-2.316.28-1.876.212-1.891-1.101-.25-1.474 1.841-3.68 2.364-3.68.872 0-.483.977-1.527 2.171-2.319 1.267-.842 1.867-1.933 1.441-2.622-1.027-1.661-4.128-1.469-5.637.349M106.383 221c-1.67 4.175-3.91 5.249-4.694 2.25-.36-1.38-.481-1.297-.573.393-.118 2.173 2.286 3.844 4.003 2.784.516-.319 1.554-2.008 2.308-3.754l1.371-3.173-.149 4.5c-.134 4.033.099 4.535 2.238 4.837 2.843.402 4.097-1.254 4.041-5.337l-.041-3-1.193 3.425c-1.792 5.142-3.663 5.097-3.852-.092-.086-2.383-.136-4.895-.111-5.583.099-2.646-1.819-1.071-3.348 2.75M148 218.5c-1.351 1.628-1.028 1.832 1.418.893.87-.334 1.582-1.009 1.582-1.5 0-1.383-1.62-1.055-3 .607m-7.444 3.41c-.848 1.372.476 4.09 1.992 4.09 1.795 0 2.592-1.471 1.848-3.41-.664-1.732-2.941-2.135-3.84-.68m-23.928 1.618c-.346.899-.628 2.814-.628 4.254 0 3.161 1.675 1.843 2.165-1.704.614-4.441 2.835-3.628 2.835 1.039 0 3.049.309 3.974 1.073 3.21.59-.59.927-2.592.75-4.45-.268-2.799-.772-3.429-2.945-3.681-1.709-.198-2.841.266-3.25 1.332m8.193 2.547c-.213 2.241-.036 4.292.395 4.559.431.266.784-1.568.784-4.075 0-5.66-.659-5.931-1.179-.484m3.19-2.588c-.708.853-.965 2.559-.604 4 .496 1.976 1.264 2.513 3.593 2.513 2.329 0 3.097-.537 3.593-2.513.723-2.881-.983-5.487-3.593-5.487-.965 0-2.31.669-2.989 1.487m1.383.93c-.854 2.225.247 4.583 2.141 4.583 1.144 0 1.508-.759 1.281-2.673-.362-3.061-2.519-4.265-3.422-1.91" fill="#1976D2" fill-rule="evenodd"/><path fill-opacity=".216" d="M138.002 27.166c-.617 2.384-1.367 5.178-1.669 6.209-.354 1.214-.157 1.634.56 1.191.609-.376 1.107-1.609 1.107-2.739 0-1.713.497-1.981 3-1.614 1.65.242 3 .069 3-.386s-.914-.827-2.031-.827c-2.127 0-3.576-2.209-2.544-3.878.368-.597 1.761-.642 3.588-.118 1.789.513 2.987.483 2.987-.074 0-.511-.863-.93-1.918-.93s-2.603-.263-3.439-.584c-1.133-.434-1.806.521-2.641 3.75M122.5 26c-.896 1.449.324 2.983 3.26 4.099 1.981.753 2.295 1.246 1.378 2.163-.917.917-1.663.891-3.272-.113-1.72-1.075-2.007-1.071-1.641.025.243.729 1.754 1.326 3.358 1.326 2.228 0 2.917-.462 2.917-1.955 0-1.218-.87-2.16-2.309-2.5-2.761-.652-2.916-2.576-.2-2.471 1.05.041 1.68-.297 1.4-.75-.713-1.154-4.146-1.03-4.891.176m-9.25.662c-1.718.694-1.577 5.822.202 7.298 1.888 1.567 5.279.462 6.052-1.973 1.271-4.005-2.2-6.96-6.254-5.325m.417 1.005c-1.28 1.279-.654 5.401.911 6.001.867.333 2.261-.079 3.097-.915 1.201-1.201 1.283-1.964.387-3.636-1.119-2.091-3.1-2.745-4.395-1.45m-7.388 1.139c-.94.598-.959 1.627-.082 4.485.626 2.04 1.529 3.709 2.006 3.709.477 0 .402-.87-.168-1.934-1.409-2.633-1.303-5.791.215-6.404.688-.277.8-.533.25-.568-.55-.035-1.549.286-2.221.712m41.767 3.639c-1.556 1.875-.971 5.77.954 6.352 1.211.366 1.259.197.25-.872-1.676-1.776-1.575-3.458.321-5.354.865-.864 1.145-1.571.623-1.571s-1.489.65-2.148 1.445m4.89-.031c1.247 1.511 1.247 1.857 0 2.647-1.167.738-1.096.911.384.924 2.241.019 1.97-4.07-.32-4.819-1.311-.429-1.319-.272-.064 1.248m-56.269.253c-1.421 1.42-.565 5.291 1.488 6.729 2.56 1.793 5.912.518 5.729-2.181-.105-1.556-.157-1.56-.557-.05-.242.916-1.019 1.886-1.725 2.157-1.63.626-4.576-1.277-2.994-1.934 2.704-1.122 4.639-3.179 3.986-4.236-.768-1.243-4.837-1.576-5.927-.485M89 33.471c0 .956 6.378 9.484 6.788 9.075.233-.234-1.05-2.477-2.852-4.985-3.095-4.31-3.936-5.184-3.936-4.09m8.667.196c-.367.366-.667 1.257-.667 1.978 0 1.037.525 1.073 2.5.173 1.375-.626 2.5-1.517 2.5-1.979 0-.995-3.376-1.13-4.333-.172m60.502 2.686c-.497.631-1.453 2.272-2.125 3.647-1.219 2.494-1.216 2.493 1.117-.179 1.287-1.474 3.239-2.842 4.339-3.041 1.884-.34 1.872-.396-.213-.967-1.218-.334-2.62-.09-3.118.54m4.828 3.879c-3.06 4.602-3.174 5.201-.501 2.626 1.508-1.453 2.575-3.145 2.37-3.76-.205-.615-1.046-.105-1.869 1.134m-78.33.435c-.367.366-.653 1.379-.637 2.25.026 1.341.187 1.315 1.05-.167 1.048-1.799 3.92-2.439 3.92-.872 0 .482-.675 1.437-1.5 2.122-.825.685-1.5 1.879-1.5 2.654 0 1.862 2.847 2.899 4.211 1.535.769-.769.464-.917-1.067-.516-2.403.628-2.968-1.449-.944-3.473 1.65-1.65 2.8-1.503 2.8.359 0 .857.484 1.26 1.075.895.688-.426.265-1.527-1.174-3.059-2.19-2.331-4.885-3.078-6.234-1.728m-8.518 5c-.743.805-1.144 1.671-.892 1.923.252.252 1.036-.238 1.743-1.09 1.669-2.011.916-2.749-.851-.833m89.712.738c-2.211 4.854 3.004 7.611 6.692 3.536 2.336-2.581.972-5.294-2.895-5.757-2.021-.241-2.912.28-3.797 2.221m1.15.082c-1.644 1.981-.565 4.513 1.922 4.513 2.142 0 4.553-3.405 3.554-5.021-.909-1.471-4.077-1.177-5.476.508M76.95 49.094c-.928 1.733-.731 2.51 1.139 4.5 1.243 1.323 2.71 2.406 3.26 2.406.55 0 .021-1.042-1.175-2.314C78.978 52.413 78 50.864 78 50.245c0-1.959 2.061-2.496 3.813-.995 3.255 2.79 4.663 3.046 2.263.411-2.914-3.199-5.603-3.412-7.126-.567m97.27 4.914c-2.074 3.633-2.119 3.988-.5 3.947.979-.025 3.13-.707 4.78-1.515 2.961-1.451 2.311-1.439-2.42.044l-2.421.759 2.137-3.622c1.175-1.991 1.814-3.618 1.42-3.613-.394.004-1.742 1.804-2.996 4M71.2 56.2c-2.633 2.633-.61 6.8 3.3 6.8 2.502 0 4.525-1.8 4.437-3.95-.039-.951-.413-.68-.968.7-.529 1.316-1.763 2.25-2.972 2.25-1.738 0-1.901-.31-1.027-1.944.573-1.07 1.496-2.226 2.052-2.569.556-.344.752-1.044.435-1.556-.81-1.312-3.831-1.157-5.257.269m.18 1.252c-.958 2.496.659 3.87 2.184 1.858.755-.996 1.387-2.147 1.404-2.56.059-1.375-3.022-.772-3.588.702m107.12 3.079c-1.65 1.352-2.55 2.445-2 2.428.55-.017 2.35-1.138 4-2.49 1.65-1.352 2.55-2.445 2-2.428-.55.017-2.35 1.138-4 2.49m-115.929 3.04c-.864.865-1.571 2.665-1.571 4 0 1.915.522 2.429 2.465 2.429 1.441 0 2.909-.83 3.535-2 .589-1.1 1.986-2 3.105-2 2.907 0 2.117 4.086-1.105 5.71-2.469 1.245-2.472 1.261-.229 1.275 2.538.017 4.879-3.847 3.892-6.421-.835-2.177-4.001-1.953-6.163.436-2.279 2.518-4.5 2.578-4.5.122 0-2.086 2.315-4.474 3.342-3.447.362.362.658.133.658-.508 0-1.637-1.573-1.452-3.429.404m122.679-.491c1.799 1.048 2.439 3.92.872 3.92-.482 0-1.437-.675-2.122-1.5-1.817-2.189-5-1.908-5 .441 0 1.068.408 2.193.907 2.501.498.309.671-.34.383-1.441-.593-2.266 1.555-2.756 3.51-.801 1.633 1.633 1.508 2.8-.3 2.8-.825 0-1.5.462-1.5 1.026 0 .584 1.292.357 3-.526 1.65-.853 3-2.35 3-3.326 0-1.979-1.841-4.19-3.45-4.144-.578.017-.263.489.7 1.05m1.406 9.091c-2.115 1.086-3.619 2.199-3.343 2.475.275.276 1.826-.184 3.445-1.021 2.217-1.146 3.228-1.239 4.093-.374 1.269 1.269 1.543-.086.384-1.902-.53-.829-1.81-.6-4.579.822m2.443 5.383c-1.871.812-3.151 1.727-2.845 2.034.307.306 2.287-.356 4.402-1.472 4.459-2.352 3.427-2.725-1.557-.562m-131.06 3.374c-.568 1.06-.759 2.639-.425 3.508 1.144 2.982 8.386 3.323 8.386.395 0-.957-.267-.964-1.2-.031-2.244 2.244-3.847 1.455-2.775-1.365.536-1.411.975-2.986.975-3.5 0-1.736-3.921-.951-4.961.993m.926.614c-.959 1.156-.994 1.829-.139 2.684 1.331 1.331 1.682 1.066 2.617-1.976.794-2.583-.593-2.979-2.478-.708m129.702.125c-1.189 1.188-.706 5.056.785 6.293 1.918 1.592 5.271.447 6.672-2.278 1.092-2.122 1.061-2.118-1.092.124-2.799 2.915-5.532 2.51-5.532-.82 0-2.124.46-2.485 3.157-2.482 1.736.002 2.947-.335 2.691-.75-.576-.932-5.769-1-6.681-.087m-36.605 4.16c-3.669 1.968-7.062 7.224-7.062 10.94 0 1.263.675 3.913 1.5 5.887.825 1.975 1.5 3.913 1.5 4.308 0 1.085-4.783 3.038-7.44 3.038-1.29 0-2.605.675-2.922 1.5-.316.825-1.264 1.5-2.107 1.5-1.148 0-1.531-1.126-1.531-4.5 0-4.333-.111-4.5-3-4.5h-3v-6.5c0-3.575-.265-6.5-.59-6.5-.324 0-1.337.913-2.25 2.03l-1.66 2.03-4-2.095c-11.276-5.906-22.611 3.831-21.257 18.259.273 2.902.828 6.063 1.233 7.026.582 1.381.24 1.75-1.621 1.75-2.068 0-2.545.772-3.857 6.25L92.5 132.5l-6.5 3.16c-3.958 1.925-5.522 3.069-4 2.926 1.375-.129 3.963-1.001 5.75-1.936 3.584-1.876 3.702-1.699 2.239 3.357-.556 1.921-1.229 5.199-1.496 7.284-1.26 9.852-2.374 12.135-6.812 13.971-2.311.956-4.477 1.738-4.812 1.738-.336 0-2.329-3.858-4.43-8.573-3.159-7.089-3.571-8.716-2.38-9.398 10.048-5.752 11.447-7.828 2.095-3.107l-6.049 3.054 4.531 9.762c2.492 5.369 4.695 9.926 4.896 10.128.338.338 3.214-.55 7.866-2.427 1.639-.662 1.828-.403 1.389 1.897-.433 2.265-.163 2.664 1.806 2.664 1.867 0 2.447-.697 2.99-3.593.479-2.55 1.581-4.146 3.796-5.496 4.227-2.578 4.621-2.447 4.621 1.53 0 3.99 1.553 5.543 2.514 2.515 1.041-3.279 4.782-2.15 5.943 1.794.719 2.444 1.526 3.25 3.25 3.25 1.372 0 2.293-.603 2.293-1.5 0-.923.937-1.5 2.435-1.5 3.499 0 7.681-1.768 10.565-4.466 1.375-1.287 3.378-2.498 4.451-2.691 1.523-.274 2.266-1.83 3.389-7.097l1.439-6.746h6.235c6.214 0 6.238.011 6.875 3.196 1.827 9.136 2.622 10.804 5.15 10.804 1.353 0 2.458-.113 2.455-.25-.004-.137-1.354-5.373-3-11.634-1.647-6.262-2.994-11.706-2.994-12.099 0-.392 1.788-1.416 3.974-2.275l3.975-1.561 2.041 3.303c4.009 6.487 13.694 8.322 19.923 3.775 3.784-2.761 6.433-8.652 5.646-12.552-.356-1.764-3.674-10.395-7.373-19.181-5.678-13.485-7.252-16.328-10.104-18.25-4.16-2.803-10.289-2.986-15.02-.449m3.271.26C150.96 87.367 147 92.321 147 96.511c0 2.498 3.597 13.092 5.514 16.239.121.198 21.177-8.597 22.271-9.303.838-.54-6.816-15.119-8.436-16.07-3.013-1.767-7.566-2.3-11.016-1.29M53.76 88.221c1.694 1.02 1.973 1.646 1.117 2.502-1.565 1.565-.395 4.146 2.351 5.183 2.935 1.108 5.408-.221 5.98-3.214.393-2.055-.086-2.512-3.628-3.462-2.244-.602-4.98-1.381-6.08-1.731-1.643-.524-1.597-.395.26.722m1.907 2.446c-1.366 1.365-.596 3.424 1.583 4.234C60.16 95.982 62 95.246 62 93c0-2.409-4.573-4.093-6.333-2.333m139.155 2.024c-.232 2.027-.839 2.765-2.179 2.652-1.284-.108-1.536.164-.817.883 1.671 1.671 4.174.055 4.174-2.695 0-2.536 1.388-3.429 2.342-1.506.279.564.392.451.25-.25-.142-.701-.975-1.414-1.853-1.584-1.101-.214-1.694.56-1.917 2.5m-4.258.016c-.542 1.425-.428 1.54.56.56.684-.679.991-1.486.683-1.793-.308-.308-.867.247-1.243 1.233m-84.372 1.317c-6.744 4.112-9.222 16.152-5.083 24.702 1.396 2.883 4.916 6.701 10.403 11.284 4.561 3.81 9.225 8.112 10.364 9.56 6.04 7.678 1.632 20.43-7.061 20.43-6.33 0-11.163-4.258-13.878-12.226L99.14 142.5l-.07 9.258c-.068 8.937-.002 9.217 1.88 8.041 1.577-.985 2.609-.903 5.399.428 12.128 5.783 21.94.064 23.351-13.61 1.056-10.234-.943-13.317-18.182-28.037-3.169-2.706-6.419-6.492-7.221-8.412-3.045-7.286 1.531-15.168 8.806-15.168 4.986 0 10.157 4.956 12.225 11.715l1.464 4.785.104-8.758c.097-8.187-.013-8.686-1.69-7.638-1.412.881-2.635.67-5.736-.992-4.941-2.648-9.033-2.675-13.278-.088m1.591 3.726c-2.943 3.374-3.972 6.43-3.325 9.877.621 3.309 5.827 10.373 7.646 10.373.493 0 .896-2.459.896-5.465 0-4.313-.394-5.675-1.869-6.465-1.027-.55-2.152-.715-2.5-.368-.347.347-.631.106-.631-.535 0-.777 2.319-1.167 6.941-1.167 3.818 0 7.191-.405 7.497-.899.305-.495-1.034-2.295-2.976-4-4.07-3.574-9.22-4.17-11.679-1.351m86.871 6.416c3.072 1.503 3.614 5.533.992 7.37-3.386 2.371-.811 1.679 4.494-1.209 6.751-3.674 6.02-4.84-4.14-6.607-2.91-.506-3.137-.431-1.346.446m-142.782.584c-.796 4.68-.545 5.221 2.712 5.832 1.82.341 3.895.385 4.612.098.717-.287-.103-.558-1.824-.601-3.384-.085-5.974-2.296-4.84-4.131.39-.631 2.213-.963 4.086-.744 1.86.217 3.382.035 3.382-.405 0-1.013-7.955-1.061-8.128-.049m60.952 1.538c.588.709 1.206 4.161 1.373 7.671.444 9.342 2.629 9.24 3.008-.141l.295-7.318 3.5-.618c2.746-.486 2.128-.647-2.872-.75-5.096-.106-6.159.126-5.304 1.156m15.294-.538c.437 2.765-.278 9.25-1.019 9.25-.495 0-1.297-1.687-1.781-3.75-.769-3.269-1.294-3.79-4.1-4.063l-3.218-.314v6.397c0 3.518.28 6.676.622 7.018.342.342 2.802-.483 5.467-1.833 5.849-2.964 7.679-3.22 3.112-.436-1.957 1.193-3.013 2.475-2.596 3.151.411.665.262.866-.358.483-.584-.361-2.116-.251-3.405.245-2.071.797-2.138.984-.58 1.614.97.391 3.107.514 4.75.273 3.731-.548 3.912.74.276 1.952l-2.713.905 3.349 1.67 3.349 1.671-.638-5.431c-.383-3.263-.238-5.679.363-6.051.635-.392 1.002 2.127 1.002 6.881 0 4.125.429 7.765.953 8.089 1.011.625 3.069-5.802 3.583-11.186.169-1.769.61-4.17.98-5.336.598-1.883.445-1.999-1.361-1.032-1.343.719-2.244.748-2.653.086-.341-.552-.256-1.003.189-1.003.445-.001.904-2.251 1.02-5 .198-4.703.064-5-2.25-5-1.354 0-2.408.338-2.343.75m35.649 4.103c-9.641 4.174-12.278 6.14-10.017 7.47 1.385.815 22.75-8.824 22.75-10.264 0-2.368-1.646-2.007-12.733 2.794m34.233-2.96c0 2.46 1.815 2.714 4.559.639 1.674-1.267 1.712-1.473.273-1.5-.918-.018-2.38-.305-3.25-.639-1.134-.435-1.582-.01-1.582 1.5m-67.98 1.631c.696.838 1.471 1.318 1.723 1.067.693-.694-.716-2.591-1.924-2.591-.664 0-.588.574.201 1.524m15.269 2.276c-1.212.771-1.107 1.386 2.804 16.419l.968 3.72 3.488-1.664c1.919-.915 3.367-1.936 3.22-2.27-.148-.334-1.782-4.297-3.631-8.806-3.253-7.931-4.275-9.035-6.849-7.399m20.521 3.52c-5.329 2.299-9.961 4.462-10.293 4.806-1.268 1.317 4.915 14.046 7.833 16.123 7.844 5.586 19.85-.174 19.85-9.523 0-4.143-4.547-15.164-6.357-15.406-.739-.099-5.703 1.701-11.033 4m-114.185.198c-1.965 1.965-2.005 2.58-.319 4.886 2.742 3.75 9.542-.237 7.087-4.154-1.481-2.362-4.782-2.719-6.768-.732m.375.982c-.995 1.199-.987 1.811.04 3.048 1.692 2.039 5.344 1.454 5.798-.928.622-3.258-3.616-4.797-5.838-2.12m143 .361c0 .474 1.195.633 2.656.354 1.817-.347 3.064.05 3.947 1.257 1.2 1.641 1.279 1.616 1.131-.354-.132-1.756-.806-2.118-3.947-2.118-2.083 0-3.787.388-3.787.861m-55.47 8.639c-.435 2.2-1.13 4.45-1.545 5-.415.55-1.051 2.391-1.414 4.091l-.66 3.091 4.544.069c2.5.037 4.545-.394 4.545-.958s-.9-.791-2-.503c-2.126.556-2.844-.842-.785-1.528.932-.311.853-1.904-.339-6.834l-1.555-6.428-.791 4m51.935-2.443c-.359.581-.377 2.156-.04 3.5.558 2.223 1.112 2.443 6.157 2.443h5.545l-.314-3.25c-.286-2.971-.606-3.25-3.73-3.25-1.967 0-3.526.541-3.675 1.275-.142.701-.029.814.25.25.28-.564 1.821-1.025 3.425-1.025 2.265 0 2.917.454 2.917 2.031 0 2.52-2.666 3.659-5.061 2.163-1.333-.833-1.894-.828-2.177.019-.749 2.248-2.931-.402-2.324-2.822.626-2.494.148-3.149-.973-1.334m-89.887 2.443c.898 3.829 1.194 4.128 2.65 2.672.926-.926.683-1.698-1.08-3.433l-2.274-2.239.704 3m-50.663-.185c.452.452 2.568.669 4.703.482l3.882-.339-4.704-.483c-2.586-.265-4.333-.112-3.881.34m-.606 4.321c-1.477 3.851 4.932 7.189 7.609 3.963 1.364-1.644.582-5.599-1.108-5.599-.66 0-.592.557.179 1.487 1.939 2.336.448 4.696-2.733 4.33-2.319-.267-2.726-.753-2.568-3.067.211-3.077-.428-3.592-1.379-1.114m54.748.329c-1.088.672-.914 2.542.947 10.179 1.255 5.146 2.377 9.479 2.495 9.63.118.15.954-.011 1.858-.357 1.33-.511 1.643-2.12 1.643-8.456 0-7.432-.141-7.925-2.805-9.822-1.743-1.241-3.31-1.686-4.138-1.174m89.488 3.894c-.703 2.213.257 5.141 1.684 5.141.59 0 .498-.624-.218-1.487-1.939-2.336-.448-4.696 2.733-4.33 1.939.223 2.756.885 2.756 2.234 0 2.788-2.268 3.106-2.787.391-.391-2.05-.456-2.001-.577.442-.182 3.673 3.53 3.93 4.439.307.858-3.417-.16-4.557-4.067-4.557-2.41 0-3.542.531-3.963 1.859M95.837 140c-1.431 6.667-1.415 7 .33 7 1.465 0 1.833-.786 1.833-3.917 0-2.154.413-4.066.918-4.25 1.041-.378.233-5.833-.864-5.833-.393 0-1.39 3.15-2.217 7m18.163.411c0 3.696-.466 7.591-1.035 8.655-.948 1.771-.678 1.934 3.2 1.934 3.294 0 3.968-.267 3.035-1.2-.66-.66-1.2-3.74-1.2-6.845 0-4.375-.45-6.052-2-7.455-1.981-1.793-2-1.747-2 4.911m-59.5-3.533c-2.498.534-3 1.128-3 3.548 0 1.714.616 3.095 1.5 3.366 1.211.37 1.259.202.25-.867-2.316-2.455-1.488-4.614 1.806-4.708 3.147-.089 4.719 1.72 3.38 3.887-.536.866-1.115.688-2.089-.644-.741-1.013-1.347-1.361-1.347-.774 0 1.902 2.97 3.744 4.144 2.57 1.096-1.096.244-7.352-.973-7.138-.369.065-2.021.407-3.671.76m64.5 4.408c0 2.761 1.332 3.604 2.559 1.618.373-.603-.051-1.824-.941-2.714-1.491-1.491-1.618-1.405-1.618 1.096m75.5.205c.55.184 2.238.607 3.75.941 1.941.428 2.75 1.228 2.75 2.719 0 1.907-.412 2.057-4.25 1.546-3.123-.416-3.779-.301-2.474.432 3.112 1.751 7.182.665 7.561-2.016.403-2.849-1.264-4.105-5.337-4.019-1.65.035-2.55.214-2 .397m-75.12 4.961c-.775 2.021.378 3.548 2.679 3.548 1.404 0 1.941-.692 1.941-2.5 0-1.846-.531-2.5-2.031-2.5-1.118 0-2.283.653-2.589 1.452M54 147c-1.98.634-2.084.801-.5.801 1.1 0 3.125-.361 4.5-.801 1.98-.634 2.084-.801.5-.801-1.1 0-3.125.361-4.5.801m5.25 3.08c2.306 1.343 2.224 3.596-.178 4.881-2.868 1.535-5.338.213-4.806-2.572.245-1.281.06-2.091-.41-1.8-.471.291-.856 1.387-.856 2.435 0 4.067 7.297 4.767 8.549.82.655-2.064-1.045-4.864-2.921-4.814-.621.017-.34.489.622 1.05M192 151.778c0 .52 1.128.729 2.506.466 1.378-.264 3.065-.032 3.75.515.707.565 2.107.646 3.244.188 2.337-.942 2.496-.883-4.25-1.575-3.007-.308-5.25-.134-5.25.406m-83 1.157c0 .514.439 2.089.975 3.5 1.351 3.553 7.068 3.613 10.57.11C124.38 152.711 123.669 152 116 152c-3.85 0-7 .421-7 .935M91.638 155.5c-.712 1.856-.55 1.856 2.998.006l2.864-1.494-2.643-.006c-1.454-.003-2.902.669-3.219 1.494m102.862.927c2.2.719 4.188 1.142 4.417.94.757-.667-.37-1.095-4.417-1.675l-4-.573 4 1.308m-137.833 3.24c-1.189 1.188-.706 5.056.785 6.293 1.918 1.592 5.271.447 6.672-2.278 1.092-2.122 1.061-2.118-1.092.124-2.799 2.915-5.532 2.51-5.532-.82 0-2.124.46-2.485 3.157-2.482 1.736.002 2.947-.335 2.691-.75-.576-.932-5.769-1-6.681-.087m135.833.562c1.65.589 3.281 1.501 3.625 2.028.392.599.858.58 1.249-.053.594-.962-4.454-3.291-6.773-3.125-.606.043.249.561 1.899 1.15m-1.618 5.409c3.618 1.578 6.128 1.226 6.103-.857-.012-.965-.232-.939-.893.104-.704 1.112-1.52 1.161-4.134.25-4.516-1.574-5.155-1.276-1.076.503m-127.569 2.656c-.413.663-.62 2.218-.461 3.456.371 2.869-2.526 3.084-3.166.235-.376-1.677-.43-1.635-.319.25.09 1.536.857 2.368 2.383 2.585 1.985.281 2.25-.116 2.25-3.373 0-3.193.206-3.521 1.523-2.428.952.79 1.284 2.053.887 3.372-.49 1.629-.359 1.847.577.96 1.449-1.375.516-4.944-1.493-5.715-.786-.302-1.768-.006-2.181.658m123.208 1.327c-.891.892-1.482 2.343-1.312 3.225.454 2.359 4.758 4.242 6.978 3.054 2.406-1.288 2.331-5.553-.121-6.865-2.641-1.413-3.652-1.307-5.545.586m.479.879c-1.668 2.009.337 4.5 3.622 4.5 2.978 0 3.286-3.444.444-4.965-2.485-1.329-2.586-1.318-4.066.465m-122.381 8.632C62.628 181.457 61 183.751 61 184.23c0 .478 2.813.562 6.25.187 6.563-.716 8.826-1.417 4.577-1.417-2.97 0-5.413-4.014-3.566-5.861.608-.608.852-1.36.541-1.67-.31-.311-2.193 1.338-4.183 3.663m117.392-.645c-1.468 1.769-.656 4.513 1.335 4.513.775 0 1.969-.675 2.654-1.5.685-.825 1.64-1.5 2.122-1.5 1.567 0 .927 2.872-.872 3.92-.963.561-1.278 1.033-.7 1.05 1.617.046 3.45-2.169 3.45-4.17 0-2.223-3.806-2.469-4.638-.3-.738 1.921-3.362 1.96-3.362.05 0-.798.787-1.909 1.75-2.47.963-.561 1.243-1.033.622-1.05-.62-.016-1.683.639-2.361 1.457m-117.988 2.989c-2.193 2.334-2.227 2.523-.447 2.509 3.134-.025 4.783-1.521 3.737-3.39-.814-1.456-1.19-1.355-3.29.881m106.644 9.191c-1.304 1.304-.639 4.406 1.083 5.052.963.362 2.23 1.296 2.816 2.078 1.308 1.743 4.589 1.247 5.264-.797.43-1.303.27-1.314-1.218-.086-1.48 1.223-1.916 1.211-3.212-.086-1.334-1.333-1.328-1.643.05-2.786 1.268-1.053 1.853-1.037 3.213.086 1.425 1.176 1.592 1.158 1.171-.128-.27-.825-1.468-1.644-2.662-1.82-1.195-.175-2.172-.738-2.172-1.25 0-1.064-3.33-1.267-4.333-.263m.506 1.992c.421 2.189 3.327 2.498 3.327.355 0-.818-.828-1.646-1.841-1.841-1.336-.257-1.743.15-1.486 1.486m-94.334 1.22c.995.631.419 1.416-2.25 3.066-1.974 1.22-3.589 2.458-3.589 2.752 0 .485 2.524-.977 7.295-4.226 1.618-1.102 1.635-1.284.168-1.847-2.309-.886-3.203-.746-1.624.255m89.836 2.927c-1.483 1.639-1.491 2.012-.083 4.022l1.552 2.216 1.813-2.24c1.61-1.987 2.023-2.08 3.678-.826 1.733 1.312 1.753 1.289.293-.32-1.548-1.704-4.928-1.396-4.928.449 0 .491-.45.893-1 .893-1.393 0-1.253-3.347.2-4.8.66-.66.955-1.2.655-1.2-.3 0-1.281.813-2.18 1.806m-87.318 2.707c-.93 2.423 1.491 4.639 3.748 3.431 1.042-.558 1.859-1.561 1.816-2.229-.059-.916-.203-.907-.583.035-.698 1.729-4.338 1.578-4.338-.18 0-.787 1.013-1.626 2.25-1.864l2.25-.434-2.281-.136c-1.255-.075-2.543.545-2.862 1.377m-3.995 2.987c-.885 2.305.358 4.5 2.548 4.5 1.084 0 2.21-.385 2.501-.856.291-.47-.583-.643-1.941-.383-1.972.377-2.47.062-2.47-1.561 0-1.118.563-2.26 1.25-2.538.979-.395.972-.521-.031-.583-.705-.043-1.541.596-1.857 1.421m85.731.888c-.921 1.109-.953 2.005-.127 3.548 1.319 2.464 3.312 2.643 5.465.49 1.433-1.433 1.634-1.42 2.234.144.421 1.096-.033 2.252-1.253 3.189-1.051.809-1.269 1.28-.483 1.046 3.028-.899 3.623-3.588 1.443-6.519-2.396-3.221-5.508-4.033-7.279-1.898m12.916.101c-.68.819-1.635 1.242-2.122.941-.488-.301-.887-.071-.887.511 0 1.657 1.519 1.248 3.5-.941.995-1.1 1.57-2 1.277-2-.292 0-1.088.67-1.768 1.489m-12.568.607c-.373.603.028 1.802.89 2.664 1.298 1.298 1.838 1.345 3.131.271 1.191-.988 1.293-1.622.428-2.664-1.366-1.646-3.519-1.777-4.449-.271M85.75 209.08c-1.054.614-1.696 2.093-1.614 3.72.114 2.247.207 2.335.56.523.514-2.642 2.83-4.734 4.26-3.85 1.683 1.04 1.205 3.301-1.029 4.866-1.141.799-1.655 1.711-1.144 2.027.893.552 7.217-6.457 7.217-7.998 0-.413-.586.051-1.303 1.031-1.184 1.62-1.422 1.637-2.622.191-1.528-1.841-1.953-1.891-4.325-.51m70.265 1.17c.011 1.615.254 1.873.862.915.64-1.009 1.485-.523 3.473 2 1.445 1.834 2.633 2.973 2.639 2.532.015-1.116-5.319-7.697-6.239-7.697-.412 0-.743 1.012-.735 2.25m-64.568 4.809c-2.241 2.476-.987 5.364 2.42 5.574 2.055.126 2.059.11.087-.328-2.053-.455-3.703-2.889-2.664-3.928.295-.295 1.696.223 3.113 1.151 2.362 1.548 2.628 1.554 3.199.068.691-1.803-1.174-4.596-3.069-4.596-.673 0-2.061.926-3.086 2.059m1.553-.168c0 .571.94 1.542 2.089 2.157 1.79.957 2.039.856 1.739-.704-.37-1.921-3.828-3.233-3.828-1.453m50 3.383c0 1.435.492 2.912 1.094 3.284.602.372.897 1.708.656 2.968-.296 1.552-.032 2.136.82 1.809.987-.379.923-1.49-.301-5.159-1.924-5.772-2.269-6.213-2.269-2.902m3.975-.744c-1.681 2.025.245 6.47 2.804 6.47 1.976 0 4.221-1.803 4.221-3.391 0-.545-.61-.157-1.355.862-.912 1.247-1.961 1.622-3.204 1.145-1.673-.642-1.593-.876.844-2.475 2.078-1.363 2.42-2.036 1.503-2.953-1.612-1.612-3.29-1.493-4.813.342m-40.239 3.459c-1.585 4.037-4.184 5.316-5.061 2.491-.33-1.065-.424-.99-.313.25.087.974 1.108 1.906 2.269 2.073 1.658.237 2.468-.593 3.781-3.875.92-2.298 1.498-4.351 1.286-4.564-.213-.212-1.095 1.419-1.962 3.625m40.723-2.922c-.363.586-.409 1.317-.102 1.623.822.823 3.643-.461 3.643-1.659 0-1.357-2.697-1.33-3.541.036m-7.792 2.6c-1.24 1.24-.677 4.08 1.083 5.461 1.585 1.243 1.621 1.207.382-.373-.752-.959-1.132-2.647-.844-3.75.56-2.14.439-2.399-.621-1.338m-30.588 1.916c.048 1.165.285 1.402.604.605.289-.722.253-1.585-.079-1.917-.332-.332-.568.258-.525 1.312m4.546 2.542c-.834 4.168-.026 4.976.875.875.38-1.729.482-3.351.227-3.606-.255-.255-.751.974-1.102 2.731m3.454-1.542c.048 1.165.285 1.402.604.605.289-.722.253-1.585-.079-1.917-.332-.332-.568.258-.525 1.312m3.171-.503c.963.561 1.802 2.01 1.866 3.22.093 1.764.208 1.844.583.402.512-1.975-1.292-4.72-3.071-4.672-.621.017-.341.489.622 1.05m7.75.92c-1.384 2.586.323 6 3 6 3.428 0 4.587-5.24 1.6-7.235-1.896-1.266-3.491-.838-4.6 1.235m-2.748 2.5c.011 2.2.216 2.982.455 1.738.239-1.244.23-3.044-.02-4s-.446.062-.435 2.262m3.386-2c-.86 2.242.337 4.5 2.386 4.5 2.21 0 3.016-1.897 1.806-4.25-1.103-2.145-3.412-2.283-4.192-.25M108 225.878c0 1.008 2.892 3.605 3.357 3.015.171-.216-.515-1.18-1.524-2.143-1.008-.963-1.833-1.355-1.833-.872m8.158 2.122c0 1.375.227 1.938.504 1.25.278-.687.278-1.812 0-2.5-.277-.687-.504-.125-.504 1.25" fill="#1976D2" fill-rule="evenodd"/></svg>